<?xml version="1.0" encoding="UTF-8"?>
<svg id="Capa_2" data-name="Capa 2" xmlns="http://www.w3.org/2000/svg" xmlns:xlink="http://www.w3.org/1999/xlink" viewBox="0 0 124.38 176.34">
  <defs>
    <style>
      .cls-1 {
        fill: none;
      }

      .cls-2 {
        fill: url(#Degradado_sin_nombre_194);
      }

      .cls-3 {
        clip-path: url(#clippath);
      }
    </style>
    <clipPath id="clippath">
      <path class="cls-1" d="M69.41,163.8c-3.28.57-6.67.87-10.12.87-18.02,0-34.16-8.04-45.03-20.73C5.37,133.58,0,120.11,0,105.38c0-9.08,2.08-15.84,2.73-17.85,0,0,4.8-15.49,16.35-25.54.49-.42,1.92-1.63,2.45-2,5.39-3.74,10.41-8.46,13.93-13.94,4.62-7.11,7.3-15.6,7.3-24.71,0-7.71-1.92-14.97-5.31-21.34,6.9,7.29,12.61,15.72,16.83,24.96-.36,7.13-3.35,13.56-8,18.37,4.62-2.2,8.56-5.61,11.4-9.82,1.39,4.08,2.5,8.29,3.3,12.6,1.03,5.5,1.56,11.17,1.56,16.96,0,2.99-.14,5.95-.43,8.87-1.23,4.6-2.14,9.32-2.73,14.15-3.18-2.55-7.26-4.01-11.65-3.85-8.42.3-15.24,6.43-16.74,14.37-.89-.11-1.8-.15-2.72-.12-4.32.16-8.21,1.84-11.19,4.53l14.07,2.93c1.57,6.73,6.97,11.94,13.72,13.3-.03.03-.06.07-.08.11.49.26.93.6,1.29,1.02.59.7.97,1.6,1,2.59.01.29-.01.57-.06.85-.04.17-.08.35-.12.53,0,0,0,0,0,.01-.61,2.86-.89,5.84-.78,8.89.53,14.99,10.1,27.53,23.28,32.57ZM120.43,173.69c.56,0,1.12-.01,1.68-.04-4.21,1.74-8.83,2.69-13.66,2.69-9.77,0-18.63-3.89-25.11-10.22-.94-.91-1.82-1.87-2.65-2.88-.37-.44-.72-.89-1.07-1.36-.19-.26-.38-.52-.57-.78-.01,0-.02,0-.03,0-10.29-13.65-17.28-29.93-19.8-47.65-.52-3.61-.84-7.29-.98-11.02-.04-1.24-.07-2.48-.07-3.73,0-3.74.2-7.43.59-11.07.05-.5.11-1,.16-1.5.59-5.03,1.54-9.78,2.74-14.23,2.19-8.21,5.36-16.02,9.39-23.3,2.54,7.07,7.8,12.85,14.52,16.07-4.73-4.08-8.11-9.68-9.37-16.04-.36-1.8-.54-3.67-.54-5.57,0-.72.03-1.43.08-2.14,0-.01,0-.02,0-.02,5.15-7.66,11.27-14.57,18.22-20.6-4.14,4.95-6.63,11.32-6.63,18.28,0,8.31,3.56,15.79,9.23,21,.01.01.02.02.03.02.46.43.93.83,1.42,1.22.02.02.03.03.05.04,2.09,1.84,4.05,3.83,5.86,5.95,1.25,1.46,2.43,2.98,3.53,4.56,3.41,4.86,6.1,10.25,7.93,16.03.74,2.34,1.34,4.73,1.79,7.18h0c.43,2.36.72,4.76.87,7.21.07,1.16.11,2.35.11,3.53,0,.12,0,.24,0,.36-.02,4.63-.58,9.14-1.61,13.46-3.17,13.29-10.81,24.84-21.25,32.97,3.05,2.3,6.46,4.12,10.15,5.35,3.6,1.21,7.46,1.87,11.47,1.87,2.57,0,5.07-.27,7.48-.78-5.64,3.67-12.37,5.81-19.6,5.81-3.02,0-5.96-.37-8.76-1.08-.4-.09-.79-.2-1.18-.32.18.19.38.38.57.57,6.48,6.27,15.3,10.14,25.03,10.14Z"/>
    </clipPath>
    <linearGradient id="Degradado_sin_nombre_194" data-name="Degradado sin nombre 194" x1="132.3" y1="20.79" x2="-17.06" y2="158.98" gradientUnits="userSpaceOnUse">
      <stop offset="0" stop-color="#977dff"/>
      <stop offset=".08" stop-color="#7a6eff"/>
      <stop offset=".28" stop-color="#384eff"/>
      <stop offset=".43" stop-color="#0f3aff"/>
      <stop offset=".51" stop-color="#03f"/>
      <stop offset=".7" stop-color="#0328a8"/>
      <stop offset="1" stop-color="#091a2a"/>
    </linearGradient>
  </defs>
  <g id="Capa_1-2" data-name="Capa 1">
    <g class="cls-3">
      <rect class="cls-2" x="-5.44" y="-.02" width="129.82" height="176.37"/>
    </g>
  </g>
</svg>